C:\Users\israe\Dropbox\PhDWork\ExperimentalData/subject1/145/P1S145W06_EMG(MVC)_40ms.mot
nRows=35
nColumns=16

name C:\Users\israe\Dropbox\PhDWork\ExperimentalData/subject1/145/P1S145W06_EMG(MVC)_40ms.mot
datacolumns 16
datarows 35
range 0.0400000000 0.0740000000
endheader
time	BF	ST	VL	VM	RF	TFL	GE	GA	TA	GL	GM	SO	ES	MF	VI_a
        0.0400000000	       -0.0401642041	        0.0048611557	       -0.0044461966	        0.0059576335	        0.0060357902	        0.0061959615	       -0.0525442728	        0.0306457491	       -0.0069532855	        0.0389941897	        0.5275609749	        0.1177932608	        0.1271441290	        0.1427881307	        0.0007557184	
        0.0410000000	       -0.0358714741	        0.0059133472	       -0.0040281847	        0.0066125864	        0.0063277228	        0.0070121856	       -0.0482745803	        0.0348754080	       -0.0036593165	        0.0573875995	        0.5387979867	        0.1264720570	        0.1491829507	        0.1667540910	        0.0012922008	
        0.0420000000	       -0.0316074434	        0.0069675379	       -0.0036133408	        0.0072682437	        0.0066210926	        0.0078260874	       -0.0440379783	        0.0390779704	       -0.0003865611	        0.0756611593	        0.5499324174	        0.1350952910	        0.1712496160	        0.1907460291	        0.0018274514	
        0.0430000000	       -0.0273804403	        0.0080216659	       -0.0032024408	        0.0079231407	        0.0069148511	        0.0086355747	       -0.0398415772	        0.0432445317	        0.0028574998	        0.0937624222	        0.5609226183	        0.1436418349	        0.1933059290	        0.2147218401	        0.0023603499	
        0.0440000000	       -0.0231978479	        0.0090738589	       -0.0027961802	        0.0085759359	        0.0072080481	        0.0094387342	       -0.0356917957	        0.0473662319	        0.0060658693	        0.1116450273	        0.5717280682	        0.1520906784	        0.2153140225	        0.2386396418	        0.0028898778	
        0.0450000000	       -0.0190661183	        0.0101224067	       -0.0023951913	        0.0092254088	        0.0074998395	        0.0102338559	       -0.0315945169	        0.0514343699	        0.0092320948	        0.1292700248	        0.5823097093	        0.1604211989	        0.2372367299	        0.2624581026	        0.0034151087	
        0.0460000000	       -0.0149910375	        0.0111656952	       -0.0020000533	        0.0098704194	        0.0077895260	        0.0110193874	       -0.0275552194	        0.0554405154	        0.0123503301	        0.1466044054	        0.5926288047	        0.1686135963	        0.2590378900	        0.2861367395	        0.0039351830	
        0.0470000000	       -0.0109778098	        0.0122021868	       -0.0016112857	        0.0105098813	        0.0080765430	        0.0117938861	       -0.0235788688	        0.0593766127	        0.0154153469	        0.1636185309	        0.6026454423	        0.1766489753	        0.2806825913	        0.3096361433	        0.0044492978	
        0.0480000000	       -0.0070309695	        0.0132303989	       -0.0012293453	        0.0111427611	        0.0083603876	        0.0125559846	       -0.0196697427	        0.0632351208	        0.0184224600	        0.1802849495	        0.6123181883	        0.1845091312	        0.3021373768	        0.3329181998	        0.0049567079	
        0.0490000000	       -0.0031544306	        0.0142488561	       -0.0008546388	        0.0117681027	        0.0086405765	        0.0133043861	       -0.0158314667	        0.0670091866	        0.0213673680	        0.1965783535	        0.6216047045	        0.1921764972	        0.3233702793	        0.3559466784	        0.0054567319	
        0.0500000000	        0.0006482918	        0.0152560793	       -0.0004875283	        0.0123850482	        0.0089166454	        0.0140379260	       -0.0120671769	        0.0706927926	        0.0242459971	        0.2124752961	        0.6304623557	        0.1996341729	        0.3443506368	        0.3786881034	        0.0059487599	
        0.0510000000	        0.0043739274	        0.0162506431	       -0.0001283234	        0.0129928292	        0.0091881410	        0.0147556460	       -0.0083796296	        0.0742807864	        0.0270544833	        0.2279534431	        0.6388492004	        0.2068659592	        0.3650492617	        0.4011121854	        0.0064322529	
        0.0520000000	        0.0080194945	        0.0172312304	        0.0002227137	        0.0135907631	        0.0094546169	        0.0154567678	       -0.0047712906	        0.0777686982	        0.0297892369	        0.2429908477	        0.6467262601	        0.2138566453	        0.3854392132	        0.4231916377	        0.0069067384	
        0.0530000000	        0.0115824006	        0.0181966262	        0.0005653487	        0.0141782462	        0.0097156357	        0.0161406066	       -0.0012444169	        0.0811523876	        0.0324469041	        0.2575659034	        0.6540602960	        0.2205922884	        0.4054963573	        0.4449018231	        0.0073717974	
        0.0540000000	        0.0150604039	        0.0191456988	        0.0008993685	        0.0147547186	        0.0099707611	        0.0168065266	        0.0021988883	        0.0844277638	        0.0350242915	        0.2716581774	        0.6608251147	        0.2270601007	        0.4251992942	        0.4662204465	        0.0078270436	
        0.0550000000	        0.0184514784	        0.0200773995	        0.0012245898	        0.0153196363	        0.0102195678	        0.0174539350	        0.0055566485	        0.0875907698	        0.0375184554	        0.2852492761	        0.6670009786	        0.2332483362	        0.4445290815	        0.4871272819	        0.0082721130	
        0.0560000000	        0.0217537812	        0.0209907566	        0.0015408602	        0.0158724624	        0.0104616762	        0.0180822808	        0.0088270556	        0.0906375625	        0.0399268630	        0.2983230519	        0.6725739942	        0.2391466603	        0.4634689942	        0.5076039346	        0.0087066613	
        0.0570000000	        0.0249657409	        0.0218848560	        0.0018480555	        0.0164126564	        0.0106967634	        0.0186910399	        0.0120085981	        0.0935646850	        0.0422473904	        0.3108654357	        0.6775362236	        0.2447467175	        0.4820042961	        0.5276335630	        0.0091303560	
        0.0580000000	        0.0280861087	        0.0227588074	        0.0021460821	        0.0169396916	        0.0109245423	        0.0192796704	        0.0151001677	        0.0963691270	        0.0444782365	        0.3228642069	        0.6818850483	        0.2500422401	        0.5001220287	        0.5472005607	        0.0095428868	
        0.0590000000	        0.0311139202	        0.0236117136	        0.0024348814	        0.0174530995	        0.0111447451	        0.0198475922	        0.0181010298	        0.0990482932	        0.0466179589	        0.3343088783	        0.6856212304	        0.2550285462	        0.5178106043	        0.5662906261	        0.0099439905	
        0.0600000000	        0.0340483961	        0.0244426878	        0.0027144264	        0.0179524689	        0.0113571043	        0.0203942653	        0.0210107439	        0.1015999267	        0.0486654954	        0.3451905643	        0.6887468314	        0.2597018570	        0.5350590620	        0.5848913531	        0.0103334476	
        0.0610000000	        0.0368888473	        0.0252509153	        0.0029847180	        0.0184374025	        0.0115613318	        0.0209193057	        0.0238291768	        0.1040220187	        0.0506200579	        0.3555013783	        0.6912642433	        0.2640586590	        0.5518568421	        0.6029926961	        0.0107110603	
        0.0620000000	        0.0396347002	        0.0260357055	        0.0032457806	        0.0189075089	        0.0117571189	        0.0214225022	        0.0265565479	        0.1063127508	        0.0524811258	        0.3652340570	        0.6931764465	        0.2680950390	        0.5681946626	        0.6205869600	        0.0110766448	
        0.0630000000	        0.0422855924	        0.0267965157	        0.0034976514	        0.0193624247	        0.0119441603	        0.0219037334	        0.0291934450	        0.1084704805	        0.0542485581	        0.3743826978	        0.6944872124	        0.2718061418	        0.5840654338	        0.6376685918	        0.0114300381	
        0.0640000000	        0.0448413931	        0.0275329480	        0.0037403696	        0.0198018297	        0.0121221752	        0.0223629061	        0.0317407911	        0.1104937171	        0.0559226079	        0.3829433845	        0.6952003852	        0.2751860253	        0.5994644223	        0.6542339409	        0.0117710997	
        0.0650000000	        0.0473021591	        0.0282447069	        0.0039739777	        0.0202254939	        0.0122909136	        0.0227999544	        0.0341997473	        0.1123810821	        0.0575038402	        0.3909134065	        0.6953193283	        0.2782281169	        0.6143890716	        0.6702810054	        0.0120997358	
        0.0660000000	        0.0496681072	        0.0289315412	        0.0041985350	        0.0206333599	        0.0124501810	        0.0232148563	        0.0365716658	        0.1141313209	        0.0589930018	        0.3982899649	        0.6948479906	        0.2809263959	        0.6288388031	        0.6858092017	        0.0124159474	
        0.0670000000	        0.0519396452	        0.0295932164	        0.0044141359	        0.0210255419	        0.0125998824	        0.0236076335	        0.0388581048	        0.1157433773	        0.0603908950	        0.4050694597	        0.6937930629	        0.2832767905	        0.6428148106	        0.7008191462	        0.0127198389	
        0.0680000000	        0.0541174486	        0.0302295174	        0.0046209158	        0.0214022156	        0.0127400292	        0.0239783475	        0.0410607793	        0.1172164763	        0.0616983736	        0.4112471576	        0.6921649987	        0.2852778956	        0.6563198577	        0.7153124456	        0.0130115657	
        0.0690000000	        0.0562025009	        0.0308402578	        0.0048190429	        0.0217635182	        0.0128707081	        0.0243270939	        0.0431814586	        0.1185502188	        0.0629164336	        0.4168170069	        0.6899766054	        0.2869309408	        0.6693578192	        0.7292915969	        0.0132912806	
        0.0700000000	        0.0581960573	        0.0314252713	        0.0050087129	        0.0221095232	        0.0129920644	        0.0246539976	        0.0452218855	        0.1197447939	        0.0640462747	        0.4217719177	        0.6872406385	        0.2882393222	        0.6819327260	        0.7427600308	        0.0135591180	
        0.0710000000	        0.0600995693	        0.0319843952	        0.0051901478	        0.0224402659	        0.0131043010	        0.0249592188	        0.0471837464	        0.1208012945	        0.0650893106	        0.4261044610	        0.6839690156	        0.2892078635	        0.6940481571	        0.7557221299	        0.0138152069	
        0.0720000000	        0.0619146411	        0.0325175078	        0.0053635891	        0.0227557744	        0.0132076675	        0.0252429547	        0.0490686834	        0.1217218890	        0.0660471400	        0.4298074699	        0.6801739241	        0.2898427261	        0.7057077615	        0.7681831480	        0.0140596817	
        0.0730000000	        0.0636430148	        0.0330246190	        0.0055292813	        0.0230560687	        0.0133024520	        0.0255054314	        0.0508783225	        0.1225097098	        0.0669214452	        0.4328744517	        0.6758684858	        0.2901523697	        0.7169160316	        0.7801491130	        0.0142926750	
        0.0740000000	        0.0652865409	        0.0335059350	        0.0056874590	        0.0233411443	        0.0133889763	        0.0257469072	        0.0526143139	        0.1231686142	        0.0677138754	        0.4353002892	        0.6710658089	        0.2901479719	        0.7276784974	        0.7916267486	        0.0145143017	
